<svg width="114" height="29" viewBox="0 0 114 29" fill="none" xmlns="http://www.w3.org/2000/svg">
<path d="M13.9999 9.33335V4.66669H9.33325" stroke="black" stroke-width="2" stroke-linecap="round" stroke-linejoin="round"/>
<path d="M21.0001 9.33331H7.00008C5.71142 9.33331 4.66675 10.378 4.66675 11.6666V21C4.66675 22.2886 5.71142 23.3333 7.00008 23.3333H21.0001C22.2887 23.3333 23.3334 22.2886 23.3334 21V11.6666C23.3334 10.378 22.2887 9.33331 21.0001 9.33331Z" stroke="black" stroke-width="2" stroke-linecap="round" stroke-linejoin="round"/>
<path d="M2.33325 16.3333H4.66658" stroke="black" stroke-width="2" stroke-linecap="round" stroke-linejoin="round"/>
<path d="M23.3333 16.3333H25.6666" stroke="black" stroke-width="2" stroke-linecap="round" stroke-linejoin="round"/>
<path d="M17.5 15.1667V17.5" stroke="black" stroke-width="2" stroke-linecap="round" stroke-linejoin="round"/>
<path d="M10.5 15.1667V17.5" stroke="black" stroke-width="2" stroke-linecap="round" stroke-linejoin="round"/>
<path d="M36.8295 23H34.6136L41.0227 5.54545H43.2045L49.6136 23H47.3977L42.1818 8.30682H42.0455L36.8295 23ZM37.6477 16.1818H46.5795V18.0568H37.6477V16.1818ZM52.2003 23V9.90909H54.2116V23H52.2003ZM53.223 7.72727C52.831 7.72727 52.4929 7.59375 52.2088 7.3267C51.9304 7.05966 51.7912 6.73864 51.7912 6.36364C51.7912 5.98864 51.9304 5.66761 52.2088 5.40057C52.4929 5.13352 52.831 5 53.223 5C53.6151 5 53.9503 5.13352 54.2287 5.40057C54.5128 5.66761 54.6548 5.98864 54.6548 6.36364C54.6548 6.73864 54.5128 7.05966 54.2287 7.3267C53.9503 7.59375 53.6151 7.72727 53.223 7.72727ZM67.7138 9.90909C67.6115 9.04545 67.1967 8.375 66.4695 7.89773C65.7422 7.42045 64.8501 7.18182 63.7933 7.18182C63.0206 7.18182 62.3445 7.30682 61.7649 7.55682C61.1911 7.80682 60.7422 8.15057 60.4183 8.58807C60.1001 9.02557 59.9411 9.52273 59.9411 10.0795C59.9411 10.5455 60.0518 10.946 60.2734 11.2812C60.5007 11.6108 60.7905 11.8864 61.1428 12.108C61.495 12.3239 61.8643 12.5028 62.2507 12.6449C62.6371 12.7812 62.9922 12.892 63.3161 12.9773L65.0888 13.4545C65.5433 13.5739 66.049 13.7386 66.6058 13.9489C67.1683 14.1591 67.7053 14.446 68.2166 14.8097C68.7337 15.1676 69.1598 15.6278 69.495 16.1903C69.8303 16.7528 69.9979 17.4432 69.9979 18.2614C69.9979 19.2045 69.7507 20.0568 69.2564 20.8182C68.7678 21.5795 68.0518 22.1847 67.1087 22.6335C66.1712 23.0824 65.032 23.3068 63.6911 23.3068C62.4411 23.3068 61.3587 23.1051 60.4439 22.7017C59.5348 22.2983 58.8189 21.7358 58.2962 21.0142C57.7791 20.2926 57.4865 19.4545 57.4183 18.5H59.6001C59.657 19.1591 59.8786 19.7045 60.2649 20.1364C60.657 20.5625 61.1513 20.8807 61.7479 21.0909C62.3501 21.2955 62.9979 21.3977 63.6911 21.3977C64.4979 21.3977 65.2223 21.267 65.8643 21.0057C66.5064 20.7386 67.0149 20.3693 67.3899 19.8977C67.7649 19.4205 67.9524 18.8636 67.9524 18.2273C67.9524 17.6477 67.7905 17.1761 67.4666 16.8125C67.1428 16.4489 66.7166 16.1534 66.1882 15.9261C65.6598 15.6989 65.0888 15.5 64.4751 15.3295L62.3274 14.7159C60.9638 14.3239 59.8842 13.7642 59.0888 13.0369C58.2933 12.3097 57.8956 11.358 57.8956 10.1818C57.8956 9.20454 58.1598 8.35227 58.6882 7.625C59.2223 6.89205 59.9382 6.32386 60.8359 5.92045C61.7393 5.51136 62.7479 5.30682 63.8615 5.30682C64.9865 5.30682 65.9865 5.50852 66.8615 5.91193C67.7365 6.30966 68.4297 6.85511 68.9411 7.54829C69.4581 8.24148 69.7308 9.02841 69.7592 9.90909H67.7138ZM77.0526 23.3068C76.223 23.3068 75.4702 23.1506 74.794 22.8381C74.1179 22.5199 73.581 22.0625 73.1832 21.4659C72.7855 20.8636 72.5866 20.1364 72.5866 19.2841C72.5866 18.5341 72.7344 17.9261 73.0298 17.4602C73.3253 16.9886 73.7202 16.6193 74.2145 16.3523C74.7088 16.0852 75.2543 15.8864 75.8509 15.7557C76.4531 15.6193 77.0582 15.5114 77.6662 15.4318C78.4616 15.3295 79.1065 15.2528 79.6009 15.2017C80.1009 15.1449 80.4645 15.0511 80.6918 14.9205C80.9247 14.7898 81.0412 14.5625 81.0412 14.2386V14.1705C81.0412 13.3295 80.8111 12.6761 80.3509 12.2102C79.8963 11.7443 79.206 11.5114 78.2798 11.5114C77.3196 11.5114 76.5668 11.7216 76.0213 12.142C75.4759 12.5625 75.0923 13.0114 74.8707 13.4886L72.9616 12.8068C73.3026 12.0114 73.7571 11.392 74.3253 10.9489C74.8991 10.5 75.5241 10.1875 76.2003 10.0114C76.8821 9.82955 77.5526 9.73864 78.2116 9.73864C78.6321 9.73864 79.1151 9.78977 79.6605 9.89204C80.2116 9.98864 80.7429 10.1903 81.2543 10.4972C81.7713 10.804 82.2003 11.267 82.5412 11.8864C82.8821 12.5057 83.0526 13.3352 83.0526 14.375V23H81.0412V21.2273H80.9389C80.8026 21.5114 80.5753 21.8153 80.2571 22.1392C79.9389 22.4631 79.5156 22.7386 78.9872 22.9659C78.4588 23.1932 77.8139 23.3068 77.0526 23.3068ZM77.3594 21.5C78.1548 21.5 78.8253 21.3438 79.3707 21.0312C79.9219 20.7188 80.3366 20.3153 80.6151 19.821C80.8991 19.3267 81.0412 18.8068 81.0412 18.2614V16.4205C80.956 16.5227 80.7685 16.6165 80.4787 16.7017C80.1946 16.7812 79.8651 16.8523 79.4901 16.9148C79.1207 16.9716 78.7599 17.0227 78.4077 17.0682C78.0611 17.108 77.7798 17.142 77.5639 17.1705C77.0412 17.2386 76.5526 17.3494 76.098 17.5028C75.6491 17.6506 75.2855 17.875 75.0071 18.1761C74.7344 18.4716 74.598 18.875 74.598 19.3864C74.598 20.0852 74.8565 20.6136 75.3736 20.9716C75.8963 21.3239 76.5582 21.5 77.3594 21.5ZM90.576 23.3068C89.7464 23.3068 88.9936 23.1506 88.3175 22.8381C87.6413 22.5199 87.1044 22.0625 86.7067 21.4659C86.3089 20.8636 86.1101 20.1364 86.1101 19.2841C86.1101 18.5341 86.2578 17.9261 86.5533 17.4602C86.8487 16.9886 87.2436 16.6193 87.7379 16.3523C88.2322 16.0852 88.7777 15.8864 89.3743 15.7557C89.9766 15.6193 90.5817 15.5114 91.1896 15.4318C91.9851 15.3295 92.63 15.2528 93.1243 15.2017C93.6243 15.1449 93.9879 15.0511 94.2152 14.9205C94.4482 14.7898 94.5646 14.5625 94.5646 14.2386V14.1705C94.5646 13.3295 94.3345 12.6761 93.8743 12.2102C93.4197 11.7443 92.7294 11.5114 91.8033 11.5114C90.843 11.5114 90.0902 11.7216 89.5447 12.142C88.9993 12.5625 88.6158 13.0114 88.3942 13.4886L86.4851 12.8068C86.826 12.0114 87.2805 11.392 87.8487 10.9489C88.4226 10.5 89.0476 10.1875 89.7237 10.0114C90.4055 9.82955 91.076 9.73864 91.7351 9.73864C92.1555 9.73864 92.6385 9.78977 93.1839 9.89204C93.7351 9.98864 94.2663 10.1903 94.7777 10.4972C95.2947 10.804 95.7237 11.267 96.0646 11.8864C96.4055 12.5057 96.576 13.3352 96.576 14.375V23H94.5646V21.2273H94.4624C94.326 21.5114 94.0987 21.8153 93.7805 22.1392C93.4624 22.4631 93.0391 22.7386 92.5107 22.9659C91.9822 23.1932 91.3374 23.3068 90.576 23.3068ZM90.8828 21.5C91.6783 21.5 92.3487 21.3438 92.8942 21.0312C93.4453 20.7188 93.8601 20.3153 94.1385 19.821C94.4226 19.3267 94.5646 18.8068 94.5646 18.2614V16.4205C94.4794 16.5227 94.2919 16.6165 94.0021 16.7017C93.718 16.7812 93.3885 16.8523 93.0135 16.9148C92.6442 16.9716 92.2834 17.0227 91.9311 17.0682C91.5845 17.108 91.3033 17.142 91.0874 17.1705C90.5646 17.2386 90.076 17.3494 89.6214 17.5028C89.1726 17.6506 88.8089 17.875 88.5305 18.1761C88.2578 18.4716 88.1214 18.875 88.1214 19.3864C88.1214 20.0852 88.38 20.6136 88.897 20.9716C89.4197 21.3239 90.0817 21.5 90.8828 21.5ZM110.065 9.90909C109.963 9.04545 109.548 8.375 108.821 7.89773C108.094 7.42045 107.202 7.18182 106.145 7.18182C105.372 7.18182 104.696 7.30682 104.116 7.55682C103.543 7.80682 103.094 8.15057 102.77 8.58807C102.452 9.02557 102.293 9.52273 102.293 10.0795C102.293 10.5455 102.403 10.946 102.625 11.2812C102.852 11.6108 103.142 11.8864 103.494 12.108C103.847 12.3239 104.216 12.5028 104.602 12.6449C104.989 12.7812 105.344 12.892 105.668 12.9773L107.44 13.4545C107.895 13.5739 108.401 13.7386 108.957 13.9489C109.52 14.1591 110.057 14.446 110.568 14.8097C111.085 15.1676 111.511 15.6278 111.847 16.1903C112.182 16.7528 112.349 17.4432 112.349 18.2614C112.349 19.2045 112.102 20.0568 111.608 20.8182C111.119 21.5795 110.403 22.1847 109.46 22.6335C108.523 23.0824 107.384 23.3068 106.043 23.3068C104.793 23.3068 103.71 23.1051 102.795 22.7017C101.886 22.2983 101.17 21.7358 100.648 21.0142C100.131 20.2926 99.8381 19.4545 99.7699 18.5H101.952C102.009 19.1591 102.23 19.7045 102.616 20.1364C103.009 20.5625 103.503 20.8807 104.099 21.0909C104.702 21.2955 105.349 21.3977 106.043 21.3977C106.849 21.3977 107.574 21.267 108.216 21.0057C108.858 20.7386 109.366 20.3693 109.741 19.8977C110.116 19.4205 110.304 18.8636 110.304 18.2273C110.304 17.6477 110.142 17.1761 109.818 16.8125C109.494 16.4489 109.068 16.1534 108.54 15.9261C108.011 15.6989 107.44 15.5 106.827 15.3295L104.679 14.7159C103.315 14.3239 102.236 13.7642 101.44 13.0369C100.645 12.3097 100.247 11.358 100.247 10.1818C100.247 9.20454 100.511 8.35227 101.04 7.625C101.574 6.89205 102.29 6.32386 103.188 5.92045C104.091 5.51136 105.099 5.30682 106.213 5.30682C107.338 5.30682 108.338 5.50852 109.213 5.91193C110.088 6.30966 110.781 6.85511 111.293 7.54829C111.81 8.24148 112.082 9.02841 112.111 9.90909H110.065Z" fill="black"/>
</svg>
